<?xml version="1.0" encoding="UTF-8" standalone="no"?>
<svg
   viewBox="0 0 16 16"
   width="16"
   height="16"
   version="1.1"
   id="svg76923"
   sodipodi:docname="calendar.svg"
   inkscape:version="1.2.2 (b0a8486541, 2022-12-01)"
   inkscape:export-filename="calendar.png"
   inkscape:export-xdpi="192"
   inkscape:export-ydpi="192"
   xmlns:inkscape="http://www.inkscape.org/namespaces/inkscape"
   xmlns:sodipodi="http://sodipodi.sourceforge.net/DTD/sodipodi-0.dtd"
   xmlns="http://www.w3.org/2000/svg"
   xmlns:svg="http://www.w3.org/2000/svg">
  <defs
     id="defs76927" />
  <sodipodi:namedview
     id="namedview76925"
     pagecolor="#ffffff"
     bordercolor="#666666"
     borderopacity="1.0"
     inkscape:showpageshadow="2"
     inkscape:pageopacity="0.0"
     inkscape:pagecheckerboard="0"
     inkscape:deskcolor="#d1d1d1"
     showgrid="false"
     inkscape:zoom="28.374958"
     inkscape:cx="7.0837108"
     inkscape:cy="7.8061789"
     inkscape:window-width="1920"
     inkscape:window-height="1060"
     inkscape:window-x="0"
     inkscape:window-y="20"
     inkscape:window-maximized="1"
     inkscape:current-layer="svg76923" />
  <path
     d="M4.75 0a.75.75 0 0 1 .75.75V2h5V.75a.75.75 0 0 1 1.5 0V2h1.25c.966 0 1.75.784 1.75 1.75v10.5A1.75 1.75 0 0 1 13.25 16H2.75A1.75 1.75 0 0 1 1 14.25V3.75C1 2.784 1.784 2 2.75 2H4V.75A.75.75 0 0 1 4.75 0ZM2.5 7.5v6.75c0 .138.112.25.25.25h10.5a.25.25 0 0 0 .25-.25V7.5Zm10.75-4H2.75a.25.25 0 0 0-.25.25V6h11V3.75a.25.25 0 0 0-.25-.25Z"
     id="path76921"
     style="fill:#fa448c;fill-opacity:1" />
  <rect
     style="fill:#fa448c;stroke-width:1.15384;fill-opacity:1"
     id="rect76929"
     width="1.5"
     height="1.5"
     x="3.5127208"
     y="8.4076204" />
  <rect
     style="fill:#fa448c;stroke-width:1.15384;fill-opacity:1"
     id="rect76983"
     width="1.5"
     height="1.5"
     x="5.5310907"
     y="8.4076204" />
  <rect
     style="fill:#fa448c;stroke-width:1.15384;fill-opacity:1"
     id="rect76985"
     width="1.5"
     height="1.5"
     x="7.5310907"
     y="8.4076204" />
  <rect
     style="fill:#fa448c;stroke-width:1.15384;fill-opacity:1"
     id="rect76987"
     width="1.5"
     height="1.5"
     x="9.5310907"
     y="8.4076204" />
  <rect
     style="fill:#fa448c;stroke-width:1.15384;fill-opacity:1"
     id="rect76989"
     width="1.5"
     height="1.5"
     x="11.531091"
     y="8.4076204" />
  <rect
     style="fill:#fa448c;stroke-width:1.15384;fill-opacity:1"
     id="rect76991"
     width="1.5"
     height="1.5"
     x="3.5127208"
     y="10.40762" />
  <rect
     style="fill:#fa448c;stroke-width:1.15384;fill-opacity:1"
     id="rect76993"
     width="1.5"
     height="1.5"
     x="5.5310907"
     y="10.40762" />
  <rect
     style="fill:#fa448c;stroke-width:1.15384;fill-opacity:1"
     id="rect76995"
     width="1.5"
     height="1.5"
     x="7.5310907"
     y="10.40762" />
  <rect
     style="fill:#fa448c;stroke-width:1.15384;fill-opacity:1"
     id="rect76997"
     width="1.5"
     height="1.5"
     x="9.5310907"
     y="10.40762" />
  <rect
     style="fill:#fa448c;stroke-width:1.15384;fill-opacity:1"
     id="rect76999"
     width="1.5"
     height="1.5"
     x="11.531091"
     y="10.40762" />
  <rect
     style="fill:#fa448c;stroke-width:1.15384;fill-opacity:1"
     id="rect77001"
     width="1.5"
     height="1.5"
     x="3.5127208"
     y="12.40762" />
  <rect
     style="fill:#fa448c;stroke-width:1.15384;fill-opacity:1"
     id="rect77003"
     width="1.5"
     height="1.5"
     x="5.5310907"
     y="12.40762" />
  <rect
     style="fill:#fa448c;stroke-width:1.15384;fill-opacity:1"
     id="rect77005"
     width="1.5"
     height="1.5"
     x="7.5310907"
     y="12.40762" />
</svg>
