<?xml version="1.0" encoding="UTF-8" standalone="no"?>
<!-- Generator: Adobe Illustrator 19.2.1, SVG Export Plug-In . SVG Version: 6.00 Build 0)  -->

<svg
   version="1.1"
   id="Layer_1"
   x="0px"
   y="0px"
   viewBox="0 0 101 101"
   xml:space="preserve"
   inkscape:version="1.2.2 (b0a8486541, 2022-12-01)"
   sodipodi:docname="id_fishbowl.svg"
   width="101"
   height="101"
   inkscape:export-filename="id_fishbowl.png"
   inkscape:export-xdpi="76.039604"
   inkscape:export-ydpi="76.039604"
   xmlns:inkscape="http://www.inkscape.org/namespaces/inkscape"
   xmlns:sodipodi="http://sodipodi.sourceforge.net/DTD/sodipodi-0.dtd"
   xmlns="http://www.w3.org/2000/svg"
   xmlns:svg="http://www.w3.org/2000/svg"
   xmlns:rdf="http://www.w3.org/1999/02/22-rdf-syntax-ns#"
   xmlns:cc="http://creativecommons.org/ns#"
   xmlns:dc="http://purl.org/dc/elements/1.1/"><metadata
     id="metadata4242"><rdf:RDF><cc:Work
         rdf:about=""><dc:format>image/svg+xml</dc:format><dc:type
           rdf:resource="http://purl.org/dc/dcmitype/StillImage" /></cc:Work></rdf:RDF></metadata><defs
     id="defs4240" /><sodipodi:namedview
     pagecolor="#152139"
     bordercolor="#666666"
     borderopacity="1"
     objecttolerance="10"
     gridtolerance="10"
     guidetolerance="10"
     inkscape:pageopacity="0"
     inkscape:pageshadow="2"
     inkscape:window-width="1920"
     inkscape:window-height="1060"
     id="namedview4238"
     showgrid="false"
     fit-margin-top="0"
     fit-margin-left="0"
     fit-margin-right="0"
     fit-margin-bottom="0"
     inkscape:zoom="6.7024036"
     inkscape:cx="44.163261"
     inkscape:cy="47.520266"
     inkscape:window-x="0"
     inkscape:window-y="20"
     inkscape:window-maximized="1"
     inkscape:current-layer="Layer_1"
     inkscape:showpageshadow="2"
     inkscape:pagecheckerboard="0"
     inkscape:deskcolor="#d1d1d1" /><style
     type="text/css"
     id="style4210">
	.st0{fill:#ECECEC;}
</style><g
     id="g4234"
     transform="matrix(0.21052744,0,0,0.21052744,82.985097,56.176295)"><path
       class="st0"
       d="m 776.2,47.2 c -0.9,0 -2.2,1.2 -2.2,-7.3 0,-6.9 1.4,-11.3 1.4,-11.9 0,-0.5 -0.2,-0.8 -0.7,-0.8 -1.9,0 -5.9,3 -6.4,3 -0.3,0 -0.4,0.1 -0.4,-0.7 0,-0.9 0.8,-4.5 1.3,-5.3 0.3,-0.5 4.5,-1.6 8.8,-1.6 5.1,0 9.5,1.3 9.5,2.6 0,1.3 -1.5,4 -1.9,4 -0.5,0 -1.8,-2 -4.1,-2 -1.6,0 -1.9,5.2 -1.9,7.8 0,7.5 1.7,11.1 1.7,11.7 0,0.6 -1.5,0.5 -1.8,0.5 z m 15.7,0 c -1,0 -1.5,0.1 -1.6,-0.5 -0.5,-1.5 -0.7,-7.9 -0.7,-9.8 l 0.3,-8.7 c 0.1,-1.1 0.4,-3.3 0.8,-4.3 0.3,-0.6 0.5,-0.9 1.7,-0.9 h 2.8 c 1.2,0 1.6,0 3.2,1.9 3,3.8 3.1,5.9 3.8,5.9 0.5,0 0.7,-2.1 4,-5.9 1.8,-2 2.3,-1.9 3.5,-1.9 h 2.3 c 1.1,0 1.4,0.3 1.6,0.9 0.4,0.9 0.7,3.2 0.8,4.3 l 0.3,8.7 c 0,1.9 -0.1,8.3 -0.7,9.8 -0.2,0.6 -0.6,0.5 -1.5,0.5 h -3.8 c -1,0 -1.7,0.1 -1.7,-0.4 0,-0.4 1.9,-5.6 1.9,-13.2 0,-0.6 0.1,-4.2 -1,-4.2 -0.5,0 -1.7,2.9 -2,3.6 -2.7,5.9 -1.5,8.7 -4.1,8.7 -2.7,0 -1.6,-2.7 -4.4,-8.7 -0.3,-0.7 -1.4,-3.6 -1.8,-3.6 -1,0 -0.9,3.6 -0.9,4.2 0,7.6 1.9,12.8 1.9,13.2 0,0.5 -0.8,0.4 -1.2,0.4 z"
       id="path4236"
       inkscape:connector-curvature="0"
       style="fill:#ececec" /></g><path
     class="st0"
     d="m 73.994153,44.512411 c 1.025963,-2.503343 5.417065,-3.857611 9.561955,0.820769 3.20099,3.611382 8.33081,2.421267 8.33081,2.421267 0,0 -3.44723,-2.051921 -5.41707,-6.894456 -3.20101,-7.920415 5.21186,-19.04183 5.21186,-19.04183 0,0 -5.29395,-0.943883 -7.92042,1.805692 -4.30903,4.514227 -1.31321,11.778027 -4.51422,13.501643 -1.76466,0.943883 -5.704338,-0.574539 -7.099638,-2.216077 -1.518419,-1.764652 -1.436353,-3.816573 0.246218,-5.458111 2.38023,-2.33919 5.49915,-1.887767 5.49915,-1.887767 0,0 -2.298141,-2.503344 -7.674176,-3.159959 -3.365161,-0.410383 -6.114728,0.984923 -7.756266,1.969846 -5.909543,-3.324115 -14.363448,-5.909536 -21.996597,-6.073688 -6.648226,-0.123118 -11.860106,0.574538 -15.676681,1.477382 0.04103,0.246232 0.04103,0.492462 0,0.738693 -0.24623,1.108038 -1.231152,1.764653 -2.257112,1.518421 -0.656615,-0.164152 -1.149076,-0.656615 -1.354269,-1.272191 -2.83165,0.943884 -4.226958,1.764652 -4.226958,1.764652 0,0 1.969845,3.529305 8.535993,6.52511 -7.099648,-2.544383 -10.382722,-5.99161 -10.382722,-5.99161 0,0 -1.477383,-0.328307 -3.159958,0.24623 -1.9698453,0.697654 -2.2160773,1.969845 -1.887769,2.544382 0.08208,0.123119 0.656615,0.533501 1.559461,1.108038 -0.861807,1.887769 -1.8467303,4.883574 -2.2160763,8.207686 -1.108038,9.849223 1.3542693,14.60968 1.3542693,14.60968 0,0 1.149076,-8.002493 3.939688,-13.173335 0.656615,-1.231153 1.272191,-2.216075 1.84673,-3.036844 0,0.902847 0,1.84673 0.04103,2.831653 0.24623,6.319917 3.11892,11.367644 3.11892,11.367644 0.492461,-4.678381 0.328307,-4.226959 1.518422,-8.700147 0.24623,-0.943884 0.533499,-1.764653 0.820769,-2.462306 1.600499,5.581227 5.581226,9.069493 5.581226,9.069493 -0.451422,-4.267998 -0.615576,-2.913729 -0.369346,-7.140687 0.04103,-0.943884 0.164151,-1.764653 0.287268,-2.462305 0.328308,0.902845 0.820769,1.846729 1.436345,2.626458 2.62646,3.242037 5.745382,3.570344 5.745382,3.570344 0,0 -1.518423,-2.462306 -2.051923,-5.417072 -0.287269,-1.559462 -0.123119,-2.585421 -0.164152,-3.118921 1.723615,-0.287269 3.15996,-0.902845 4.309034,-1.600499 1.10804,2.585421 4.760452,12.188413 2.626461,20.929599 -0.369347,-0.205192 -0.861808,-0.5335 -1.436345,-1.025961 -2.010882,-1.764653 -2.790614,-3.242036 -2.790614,-3.242036 0,0 -0.615576,3.734497 0.820769,7.304841 0.164151,0.369344 0.28727,0.697652 0.410385,1.025959 -0.123119,-0.08207 -0.246232,-0.123118 -0.369346,-0.20519 -3.40619,-2.010884 -5.006689,-5.49915 -5.006689,-5.49915 0,0 -0.123119,5.088764 2.257114,9.89026 -0.77973,-0.328307 -1.641538,-0.738691 -2.626459,-1.354267 -3.857612,-2.339191 -3.447228,-2.133999 -6.935494,-5.088766 0,0 1.846728,5.499149 5.909533,10.095453 0.24623,0.28727 0.492461,0.5335 0.738691,0.820769 -1.31323,-0.287269 -2.995807,-0.77973 -5.006689,-1.682575 -5.49915,-2.462306 -4.883574,-2.257114 -9.972338,-5.581226 0,0 3.077882,6.484071 8.864299,11.778028 -2.092958,1.395306 -3.570342,2.339191 -3.693457,2.954767 -0.246231,1.231153 0.697652,3.857613 5.006687,4.801496 3.283075,0.738691 5.129803,0.984923 6.853419,0.08209 1.846728,-0.943884 7.468993,-7.715225 10.177521,-16.374333 -1.723606,10.259607 -8.289754,16.825755 -8.289754,16.825755 0,0 26.264601,-1.682574 35.210962,-16.579523 1.313234,0.5335 3.980735,1.066998 8.741202,0 6.19679,-1.395306 9.23365,-4.226959 9.23365,-4.226959 0,0 -6.52512,-1.436345 -9.31574,-4.226957 -2.708535,-2.708536 -3.529295,-5.417074 -3.529295,-5.417074 0,0 -0.08207,3.200998 -1.025963,6.237841 -0.615574,1.887769 -1.600504,3.40619 -2.585415,4.555266 0.08207,-0.205192 0.164132,-0.410383 0.246218,-0.656615 3.283075,-9.438838 1.313234,-12.434642 2.667501,-15.758756 z M 32.750534,26.496542 c -0.328307,1.682575 -1.928806,2.749575 -3.488266,2.33919 -1.600498,-0.369345 -2.585421,-2.051921 -2.257113,-3.734496 0.328307,-1.682576 1.928806,-2.749575 3.488266,-2.339191 1.600498,0.410385 2.585421,2.051921 2.257113,3.734497 z m 19.370142,33.89774 c -0.287271,2.831653 2.051907,4.555267 2.051907,4.555267 0,0 -2.09296,-0.451423 -2.995805,-1.025962 -2.133993,-1.395306 -2.626448,-2.87269 -2.626448,-4.103842 -1.764656,6.196802 -3.570346,8.084571 -3.570346,8.084571 0,0 1.313234,-3.816575 2.257112,-8.782225 1.066997,-5.663301 -0.615574,-10.875183 -0.615574,-10.875183 0,0 2.954771,3.775537 2.421263,9.069494 0.738693,-2.09296 2.462316,-5.417074 5.211884,-6.319919 2.995804,-1.025961 6.237846,1.723614 6.237846,1.723614 0,0 -7.674199,0.902846 -8.371839,7.674185 z"
     id="path4214"
     inkscape:connector-curvature="0"
     style="fill:#ececec;stroke-width:0.410383" /></svg>
